<svg width="94" height="94" viewBox="0 0 94 94" fill="none" xmlns="http://www.w3.org/2000/svg">
<g clip-path="url(#clip0_702_13)">
<path d="M12 48C12 52.2023 12.9053 56.3635 14.6642 60.2458C16.4232 64.1283 19.0012 67.6559 22.2511 70.6272C25.5014 73.5989 29.3597 75.9559 33.6062 77.5641C37.8525 79.1723 42.4038 80 47.0001 80C51.5964 80 56.1477 79.1723 60.394 77.5641C64.6405 75.9559 68.4988 73.5989 71.7488 70.6272C74.9988 67.6559 77.577 64.1283 79.336 60.2458C81.0947 56.3635 82 52.2023 82 48H47.0001H12Z" fill="#2ECB98"/>
<path d="M26 41C34.2843 41 41 34.2843 41 26C41 17.7157 34.2843 11 26 11C17.7157 11 11 17.7157 11 26C11 34.2843 17.7157 41 26 41Z" fill="#FFAE45"/>
</g>
<defs>
<clipPath id="clip0_702_13">
<rect width="94" height="94" fill="white"/>
</clipPath>
</defs>
</svg>
