<svg width="94" height="94" viewBox="0 0 94 94" fill="none" xmlns="http://www.w3.org/2000/svg">
<g clip-path="url(#clip0_702_8)">
<path d="M43 83C57.9117 83 70 70.9117 70 56C70 41.0883 57.9117 29 43 29C28.0883 29 16 41.0883 16 56C16 70.9117 28.0883 83 43 83Z" fill="#FFDB57"/>
<path d="M50 66C59.9411 66 68 57.9411 68 48C68 38.0589 59.9411 30 50 30C40.0589 30 32 38.0589 32 48C32 57.9411 40.0589 66 50 66Z" fill="#039AFF"/>
<path d="M62 50C70.2843 50 77 43.2843 77 35C77 26.7157 70.2843 20 62 20C53.7157 20 47 26.7157 47 35C47 43.2843 53.7157 50 62 50Z" fill="#F9BBC6"/>
</g>
<defs>
<clipPath id="clip0_702_8">
<rect width="94" height="94" fill="white"/>
</clipPath>
</defs>
</svg>
